<?xml version="1.0" encoding="UTF-8"?>
<svg width="135px" height="40px" viewBox="0 0 135 40" version="1.1" xmlns="http://www.w3.org/2000/svg" xmlns:xlink="http://www.w3.org/1999/xlink">
    <title>logo/store/appleAppStore_EN</title>
    <g id="logo/store/appleAppStore_EN" stroke="none" stroke-width="1" fill="none" fill-rule="evenodd">
        <g id="Group" fill-rule="nonzero">
            <g id="AppleAppStore">
                <path d="M127,0 C131.418278,0 135,3.581722 135,8 L135,32 C135,36.418278 131.418278,40 127,40 L8,40 C3.581722,40 0,36.418278 0,32 L0,8 C0,3.581722 3.581722,0 8,0 L127,0 Z" id="Path" fill="#979797"></path>
                <path d="M127,1 L8,1 C4.13400675,1 1,4.13400675 1,8 L1,32 C1,35.8659932 4.13400675,39 8,39 L127,39 C130.865993,39 134,35.8659932 134,32 L134,8 C134,4.13400675 130.865993,1 127,1 Z" id="Path" fill="#000000"></path>
                <path d="M22.8550052,13.9736961 L23.13428,13.99094 C24.730392,14.0408784 26.2095126,14.8405128 27.12544,16.14862 C25.6801229,17.0371861 24.790737,18.6042091 24.76888,20.30068 C24.7709432,22.2200343 25.9203766,23.9521813 27.68812,24.69985 C27.3481437,25.8042759 26.8356761,26.8479997 26.1697,27.79236 C25.27532,29.13026 24.33757,30.43734 22.84919,30.4615 C21.40298,30.49488 20.91695,29.6104 19.25819,29.6104 C17.58389,29.6104 17.06585,30.43735 15.67879,30.49488 C14.26134,30.54738 13.17806,29.06693 12.25116,27.74158 C10.39855,25.03497 8.95596,20.11392 10.88996,16.7655 C11.7981372,15.1335255 13.4962013,14.0979384 15.36288,14.03763 C16.78161,14.00844 18.09911,14.99577 18.97138,14.99577 C19.82709,14.99577 21.45504,13.81468 23.13428,13.99094 L22.8550052,13.9736961 Z M23.15177,8.72027 C23.248585,9.98450245 22.8487766,11.2366819 22.03725,12.21089 C21.2499161,13.1901532 20.0569368,13.7542068 18.80048,13.74127 C18.7205746,12.5134327 19.1320187,11.304189 19.94419,10.37988 C20.7666802,9.44304968 21.9119378,8.85049049 23.15177,8.72027 Z" id="Combined-Shape" fill="#FFFFFF"></path>
            </g>
        </g>
        <path d="M108.3789,10.67091 C109.63183,10.67091 110.38769,11.52691 110.38769,12.94091 L110.38769,13.251 L107.208,13.251 L107.208,13.3008 C107.179862,13.6349401 107.293981,13.9654478 107.522291,14.2110407 C107.750601,14.4566336 108.071918,14.5945239 108.40722,14.5908 C108.841992,14.6429947 109.265213,14.427333 109.47851,14.0449 L110.33398,14.04493 C110.084787,14.8943095 109.262829,15.443103 108.38281,15.34766 C107.782374,15.3635102 107.205321,15.1146307 106.804758,14.6670552 C106.404195,14.2194796 106.220616,13.6184559 106.30273,13.02345 C106.222797,12.4267905 106.405688,11.8248037 106.804021,11.373447 C107.202353,10.9220902 107.776932,10.6657768 108.3789,10.67091 Z M50.5017441,10.9915974 C51.1906763,11.4191119 51.5776929,12.2002251 51.50048,13.00734 C51.5791619,13.8153223 51.1924987,14.5979504 50.5029555,15.0263853 C49.8134124,15.4548202 48.9404776,15.4548202 48.2509345,15.0263853 C47.5613913,14.5979504 47.1747281,13.8153223 47.25341,13.00734 C47.1761971,12.2002251 47.5632137,11.4191119 48.2521459,10.9915974 C48.9410782,10.5640828 49.8128118,10.5640828 50.5017441,10.9915974 Z M70.0391726,10.9915182 C70.728156,11.4190394 71.1152336,12.2001722 71.03808,13.00734 C71.116662,13.8153512 70.7299279,14.5979572 70.0403505,15.0263732 C69.3507732,15.4547893 68.4778268,15.4547893 67.7882495,15.0263732 C67.0986721,14.5979572 66.711938,13.8153512 66.79052,13.00734 C66.7133664,12.2001722 67.100444,11.4190394 67.7894274,10.9915182 C68.4784108,10.563997 69.3501892,10.563997 70.0391726,10.9915182 Z M88.0510641,10.9915974 C88.7399963,11.4191119 89.1270129,12.2002251 89.0498,13.00734 C89.1284819,13.8153223 88.7418187,14.5979504 88.0522755,15.0263853 C87.3627324,15.4548202 86.4897976,15.4548202 85.8002545,15.0263853 C85.1107113,14.5979504 84.7240481,13.8153223 84.80273,13.00734 C84.7255171,12.2002251 85.1125337,11.4191119 85.8014659,10.9915974 C86.4903982,10.5640828 87.3621318,10.5640828 88.0510641,10.9915974 Z M73.9873,10.67092 C75.11621,10.67092 75.75293,11.23292 75.75293,12.1841 L75.75293,15.26076 L74.89746,15.26076 L74.89746,14.62795 L74.82715,14.62795 C74.5365986,15.0900763 74.0199036,15.3601632 73.47461,15.33495 C73.0923461,15.3747118 72.7111011,15.2509107 72.4251258,14.9941524 C72.1391505,14.7373942 71.9751361,14.3716433 71.97363,13.98732 C71.97363,13.17677 72.57715,12.70949 73.64843,12.64308 L74.86816,12.57277 L74.86816,12.1841 C74.86816,11.70851 74.55371,11.43996 73.94629,11.43996 C73.4502,11.43996 73.10645,11.62209 73.00781,11.94045 L72.14746,11.94045 C72.23828,11.16701 72.96582,10.67092 73.9873,10.67092 Z M81.12597,9 L81.12597,15.26074 L80.27441,15.26074 L80.27441,14.54931 L80.2041,14.54931 C79.9154842,15.053737 79.3708045,15.3563565 78.79004,15.33495 C77.64453,15.335 76.92089,14.43361 76.92089,13.00734 C76.92089,11.58449 77.65234,10.68312 78.79003,10.68312 C79.3645068,10.6566501 79.9025575,10.9644729 80.17089,11.47312 L80.2373,11.47312 L80.2373,9 L81.12597,9 Z M99.08789,9.63673 L99.08789,10.77833 L100.06348,10.77833 L100.06348,11.52687 L99.08789,11.52687 L99.08789,13.8423 C99.08789,14.31398 99.28223,14.52052 99.72461,14.52052 C99.8378656,14.5201575 99.9510075,14.5133097 100.06348,14.50001 L100.06348,15.24024 C99.9038895,15.2687907 99.7421956,15.28398 99.58008,15.28565 C98.5918,15.28565 98.19824,14.93799 98.19824,14.06983 L98.19824,11.52683 L97.4834,11.52683 L97.4834,10.77829 L98.19824,10.77829 L98.19824,9.63673 L99.08789,9.63673 Z M45.5044913,10.1118718 C46.0483603,10.6861962 46.3060159,11.4741448 46.20654,12.25884 C46.20654,14.16509 45.17627,15.26084 43.39892,15.26084 L41.24365,15.26084 L41.24365,9.294 L43.39892,9.294 C44.1878666,9.23738418 44.9606223,9.53754743 45.5044913,10.1118718 Z M53.04346,10.75782 L53.8501,14.19382 L53.91651,14.19382 L54.84229,10.75782 L55.69483,10.75782 L56.62061,14.19382 L56.69092,14.19382 L57.49365,10.75782 L58.38232,10.75782 L57.14599,15.26075 L56.22412,15.26075 L55.29346,11.94434 L55.22315,11.94434 L54.29639,15.26075 L53.3833,15.26075 L52.14209,10.75782 L53.04346,10.75782 Z M61.69189,10.6709 C62.1357068,10.6375318 62.5706159,10.8077899 62.8738208,11.1336021 C63.1770257,11.4594142 63.3156231,11.9054238 63.25048,12.3457 L63.25048,15.2607 L62.36181,15.2607 L62.36181,12.56886 C62.36181,11.84523 62.04736,11.48536 61.39013,11.48536 C61.0890958,11.4713391 60.7969502,11.5894826 60.5902846,11.8088168 C60.383619,12.028151 60.283045,12.326801 60.31493,12.62647 L60.31493,15.26075 L59.42626,15.26075 L59.42626,10.75782 L60.28173,10.75782 L60.28173,11.47315 L60.34814,11.47315 C60.5790749,10.9464779 61.1187029,10.6243075 61.69189,10.6709 Z M65.55517,9 L65.55517,15.26074 L64.6665,15.26074 L64.6665,9 L65.55517,9 Z M92.50781,10.6709 C92.9516268,10.6375318 93.3865359,10.8077899 93.6897408,11.1336021 C93.9929457,11.4594142 94.1315431,11.9054238 94.0664,12.3457 L94.0664,15.2607 L93.17773,15.2607 L93.17773,12.56886 C93.17773,11.84523 92.86328,11.48536 92.20605,11.48536 C91.9050158,11.4713391 91.6128702,11.5894826 91.4062046,11.8088168 C91.199539,12.028151 91.098965,12.326801 91.13085,12.62647 L91.13085,15.26075 L90.24218,15.26075 L90.24218,10.75782 L91.09765,10.75782 L91.09765,11.47315 L91.16406,11.47315 C91.3949949,10.9464779 91.9346229,10.6243075 92.50781,10.6709 Z M102.1582,9 L102.1582,11.48145 L102.22851,11.48145 C102.470538,10.9501686 103.01961,10.6275875 103.60151,10.67481 C104.042807,10.6507973 104.471828,10.8248037 104.771719,11.1494339 C105.07161,11.474064 105.211135,11.9155056 105.15229,12.35352 L105.15229,15.26075 L104.26273,15.26075 L104.26273,12.57275 C104.26273,11.85351 103.92773,11.48925 103.29984,11.48925 C102.990669,11.4638937 102.686069,11.576291 102.467472,11.7963935 C102.248876,12.016496 102.138572,12.3218603 102.16605,12.63085 L102.16605,15.26075 L101.27738,15.26075 L101.27734,9 L102.1582,9 Z M74.86816,13.22609 L73.76855,13.2964 C73.14843,13.3379 72.86718,13.54884 72.86718,13.94581 C72.86718,14.35108 73.21874,14.58692 73.70218,14.58692 C73.9883661,14.6158899 74.2740564,14.5274751 74.4938504,14.3419156 C74.7136444,14.1563561 74.8487216,13.8895411 74.86816,13.60255 L74.86816,13.22609 Z M49.37841,11.46047 C48.60595,11.46047 48.17141,12.03127 48.17141,13.00735 C48.17141,13.99124 48.60598,14.55764 49.37841,14.55764 C50.14795,14.55764 50.58642,13.98732 50.58642,13.00734 C50.58642,12.03127 50.14793,11.46047 49.37841,11.46047 Z M68.91552,11.46047 C68.14306,11.46047 67.70852,12.03127 67.70852,13.00735 C67.70852,13.99124 68.14309,14.55764 68.91552,14.55764 C69.68505,14.55764 70.12353,13.98732 70.12353,13.00734 C70.12353,12.03127 69.68504,11.46047 68.91552,11.46047 Z M86.92773,11.46047 C86.15527,11.46047 85.72073,12.03127 85.72073,13.00735 C85.72073,13.99124 86.1553,14.55764 86.92773,14.55764 C87.69726,14.55764 88.13573,13.98732 88.13573,13.00734 C88.13573,12.03127 87.69725,11.46047 86.92773,11.46047 Z M79.04202,11.48146 C78.29394,11.48146 77.83886,12.06007 77.83886,13.00734 C77.83889,13.96242 78.28909,14.53713 79.04202,14.53713 C79.79102,14.53713 80.25393,13.95413 80.25393,13.01125 C80.25393,12.07277 79.78616,11.48146 79.04202,11.48146 Z M43.2954,10.13721 L42.1704,10.13721 L42.1704,14.417 L43.2954,14.417 C43.8592219,14.450702 44.4082165,14.228559 44.7899485,13.8122518 C45.1716805,13.3959446 45.3455096,12.8297944 45.26317,12.271 C45.339519,11.7145245 45.1631866,11.1530462 44.7824011,10.740134 C44.4016156,10.3272217 43.8562257,10.1060863 43.2954,10.13721 Z M108.37399,11.42726 C108.063482,11.4233589 107.764558,11.5450212 107.545026,11.7646489 C107.325495,11.9842765 107.203963,12.2832537 107.208,12.59376 L109.48239,12.59376 C109.505043,12.2881604 109.397588,11.9872051 109.186507,11.7650591 C108.975425,11.5429131 108.680347,11.4202362 108.37399,11.42726 Z M56.0046032,22.3385798 C58.1781086,22.3385894 59.6108584,24.0828737 59.6108584,26.7771515 C59.6108584,29.4789292 58.1864609,31.2147724 56.0369342,31.2147724 C54.9258626,31.2737776 53.8792939,30.68297 53.3424065,29.6936613 L53.3017327,29.6936613 L53.3017327,34 L51.5438665,34 L51.5438665,22.4295487 L53.2454136,22.4295487 L53.2454136,23.8756223 L53.2777446,23.8756223 C53.8384837,22.8925157 54.886181,22.3019625 56.0046032,22.3385798 Z M65.430347,22.3385894 C67.6039186,22.3385894 69.0366306,24.0828737 69.0366306,26.7771515 C69.0366306,29.4789292 67.6122331,31.2147724 65.4627063,31.2147724 C64.3516347,31.2737776 63.305066,30.68297 62.7681786,29.6936613 L62.7275048,29.6936613 L62.7275048,34 L60.9696386,34 L60.9696386,22.4295487 L62.6711479,22.4295487 L62.6711479,23.8756223 L62.7034789,23.8756223 C63.2642221,22.8925163 64.3119234,22.3019666 65.430347,22.3385894 Z M78.0504241,19 C80.5324736,19 82.2340112,20.4132506 82.2912856,22.4707647 L80.5167716,22.4707647 C80.4105467,21.2807065 79.4415447,20.5623656 78.0254617,20.5623656 C76.6093787,20.5623656 75.6403862,21.2891571 75.6403862,22.3469824 C75.6403862,23.1900563 76.2592905,23.686146 77.773284,24.0659148 L79.0674306,24.3885171 C81.4774496,24.9671348 82.4787825,25.9499608 82.4787825,27.6942259 C82.4787825,29.9252274 80.7283039,31.322537 77.9441708,31.322537 C75.3392391,31.322537 73.5804554,29.9580504 73.4668335,27.8011262 L75.266291,27.8012127 C75.3965419,28.983771 76.5281256,29.7602195 78.0744406,29.7602195 C79.5561125,29.7602195 80.6220979,28.9837326 80.6220979,27.9174567 C80.6220979,26.9918548 79.9791771,26.4376383 78.4568692,26.0578214 L76.9345612,25.6855141 C74.777647,25.1566015 73.7763141,24.1325307 73.7763141,22.4707647 C73.7763141,20.4132506 75.5424947,19 78.0504241,19 Z M92.9059443,22.3226484 C95.3889397,22.3226484 96.9685221,24.0415809 96.9685221,26.7771515 C96.9685221,29.5201931 95.3972542,31.2316545 92.9059443,31.2316545 C90.4155141,31.2316545 88.8442841,29.5201835 88.8442841,26.7771515 C88.8442841,24.0416193 90.431254,22.3226484 92.9059443,22.3226484 Z M107.14064,22.3226388 C109.510014,22.3226388 111,23.9750227 111,26.6111544 L111,27.222595 L104.951395,27.222595 L104.951395,27.3304364 C104.894922,27.9777073 105.115075,28.6184157 105.555855,29.0895861 C105.996635,29.5607565 106.615557,29.8169762 107.255189,29.7930713 C108.108244,29.874216 108.912508,29.3769145 109.232902,28.5701901 L110.90208,28.5701997 C110.665604,30.1484966 109.151601,31.2316449 107.214534,31.2316449 C104.723224,31.2316449 103.1769,29.537056 103.1769,26.8184058 C103.1769,24.0913147 104.731539,22.3226388 107.14064,22.3226388 Z M86.2725725,20.3720346 L86.2725725,22.4295487 L87.9011148,22.4295487 L87.9011148,23.8427993 L86.2725725,23.8427993 L86.2725725,28.6358456 C86.2725725,29.3804506 86.5986536,29.7274349 87.3145414,29.7274349 C87.5078759,29.7240124 87.7008975,29.7102289 87.8928003,29.6861421 L87.8928003,31.0909517 C87.5709363,31.152007 87.2437886,31.1796587 86.9164108,31.1734797 C85.1825706,31.1734797 84.5063918,30.5123341 84.5063918,28.8261862 L84.5063918,23.8427993 L83.2612051,23.8427993 L83.2612051,22.4295487 L84.5063729,22.4295487 L84.5063729,20.3720346 L86.2725725,20.3720346 Z M46.2111775,19.1988392 L50.4520391,31.1238131 L48.5232766,31.1238131 L47.4489862,27.9006227 L42.9716489,27.9006227 L41.896422,31.1238131 L40,31.1238131 L44.2408615,19.1988392 L46.2111775,19.1988392 Z M102.194996,22.3385702 C102.397574,22.3378521 102.599593,22.3601872 102.797271,22.4051572 L102.797271,24.0744231 C102.541528,23.9950865 102.274744,23.9586604 102.007442,23.9665816 C101.490646,23.9452971 100.990503,24.1543916 100.638334,24.5389631 C100.286165,24.9235346 100.117156,25.445162 100.175682,25.9668813 L100.175682,31.1237939 L98.4178158,31.1237939 L98.4178158,22.4295487 L100.094401,22.4295487 L100.094401,23.9093671 L100.135074,23.9093671 C100.368879,22.9567409 101.228663,22.3011104 102.194996,22.3385702 Z M92.9059349,23.7931039 C91.4815374,23.7931039 90.6353988,24.9090752 90.6353988,26.7771515 C90.6353988,28.6611686 91.4815374,29.7602675 92.9059349,29.7602675 C94.3303324,29.7602675 95.177398,28.6611686 95.177398,26.7771515 C95.177398,24.9006342 94.3303324,23.7931039 92.9059349,23.7931039 Z M55.5408837,23.8596813 C54.1977771,23.8596813 53.2943641,25.0412986 53.2943641,26.7771515 C53.2943641,28.5289453 54.1977771,29.7021215 55.5408837,29.7021215 C56.9080163,29.7021215 57.8040323,28.5533272 57.8040323,26.7771515 C57.8040323,25.0169262 56.9080068,23.8596813 55.5408837,23.8596813 Z M64.9666559,23.8596813 C63.6235493,23.8596813 62.7201362,25.0412986 62.7201362,26.7771515 C62.7201362,28.5289453 63.6235493,29.7021215 64.9666559,29.7021215 C66.3337884,29.7021215 67.2298139,28.5533272 67.2298139,26.7771515 C67.2298139,25.0169262 66.3337789,23.8596813 64.9666559,23.8596813 Z M45.2348353,21.1822856 L45.1858754,21.1822856 L43.4353589,26.4132851 L46.984387,26.4132851 L45.2348353,21.1822856 Z M107.14064,23.7687124 C106.562449,23.7652094 106.006834,23.9963265 105.597291,24.4106935 C105.187748,24.8250606 104.958211,25.3883433 104.959686,25.9753415 L109.241207,25.9753415 C109.273108,25.3937157 109.064566,24.8249561 108.665824,24.4060825 C108.267082,23.9872088 107.714293,23.7562001 107.14064,23.7687124 Z" id="Combined-Shape" fill="#FFFFFF" fill-rule="nonzero"></path>
    </g>
</svg>