<?xml version="1.0" encoding="UTF-8"?>
<svg width="135px" height="40px" viewBox="0 0 135 40" version="1.1" xmlns="http://www.w3.org/2000/svg" xmlns:xlink="http://www.w3.org/1999/xlink">
    <title>logo/store/GooglePlayStore_EN</title>
    <defs>
        <linearGradient x1="61.231376%" y1="4.8388%" x2="26.323984%" y2="71.9684%" id="linearGradient-1">
            <stop stop-color="#00A0FF" offset="0%"></stop>
            <stop stop-color="#00A1FF" offset="0.657445%"></stop>
            <stop stop-color="#00BEFF" offset="26.01%"></stop>
            <stop stop-color="#00D2FF" offset="51.22%"></stop>
            <stop stop-color="#00DFFF" offset="76.04%"></stop>
            <stop stop-color="#00E3FF" offset="100%"></stop>
        </linearGradient>
        <linearGradient x1="107.728079%" y1="49.4282353%" x2="-130.665025%" y2="49.4282353%" id="linearGradient-2">
            <stop stop-color="#FFE000" offset="0%"></stop>
            <stop stop-color="#FFBD00" offset="40.87%"></stop>
            <stop stop-color="#FFA500" offset="77.54%"></stop>
            <stop stop-color="#FF9C00" offset="100%"></stop>
        </linearGradient>
        <linearGradient x1="86.3892216%" y1="30.8297553%" x2="-49.888024%" y2="136.004321%" id="linearGradient-3">
            <stop stop-color="#FF3A44" offset="0%"></stop>
            <stop stop-color="#C31162" offset="100%"></stop>
        </linearGradient>
        <linearGradient x1="-18.5790419%" y1="-11.6823797%" x2="42.2748503%" y2="35.0643382%" id="linearGradient-4">
            <stop stop-color="#32A071" offset="0%"></stop>
            <stop stop-color="#2DA771" offset="6.85%"></stop>
            <stop stop-color="#15CF74" offset="47.62%"></stop>
            <stop stop-color="#06E775" offset="80.09%"></stop>
            <stop stop-color="#00F076" offset="100%"></stop>
        </linearGradient>
    </defs>
    <g id="logo/store/GooglePlayStore_EN" stroke="none" stroke-width="1" fill="none" fill-rule="evenodd">
        <g id="Group" fill-rule="nonzero">
            <g>
                <path d="M127,0 C131.418278,0 135,3.581722 135,8 L135,32 C135,36.418278 131.418278,40 127,40 L8,40 C3.581722,40 0,36.418278 0,32 L0,8 C0,3.581722 3.581722,0 8,0 L127,0 Z" id="Path" fill="#979797"></path>
                <path d="M127,1 L8,1 C4.13400675,1 1,4.13400675 1,8 L1,32 C1,35.8659932 4.13400675,39 8,39 L127,39 C130.865993,39 134,35.8659932 134,32 L134,8 C134,4.13400675 130.865993,1 127,1 Z" id="Path" fill="#000000"></path>
                <g id="badge" transform="translate(6.000000, 7.000000)">
                    <path d="M1.4,0.5 C1.1,0.8 0.9,1.3 0.9,1.9 L0.9,24 C0.9,24.6 1.1,25.1 1.4,25.4 L1.5,25.5 L13.9,13.1 L13.9,13 L13.9,12.9 L1.4,0.5 L1.4,0.5 Z" id="Path" fill="url(#linearGradient-1)"></path>
                    <path d="M18,17.3 L13.9,13.2 L13.9,13 L13.9,12.9 L18,8.8 L18.1,8.9 L23,11.7 C24.4,12.5 24.4,13.8 23,14.6 L18,17.3 L18,17.3 Z" id="Path" fill="url(#linearGradient-2)"></path>
                    <path d="M18.1,17.2 L13.9,13 L1.4,25.5 C1.9,26 2.6,26 3.5,25.6 L18.1,17.2" id="Path" fill="url(#linearGradient-3)"></path>
                    <path d="M18.1,8.8 L3.5,0.5 C2.6,5.55111512e-17 1.9,0.1 1.4,0.6 L13.9,13 L18.1,8.8 Z" id="Path" fill="url(#linearGradient-4)"></path>
                    <path d="M1.60263704,25.2759111 C2.09377778,25.6106667 2.75333333,25.6666667 3.5,25.2 L3.5,25.2 L18,17 L3.5,25.4 C2.7,25.9 2,25.8 1.5,25.4 L1.5,25.4 L1.4,25.3 L1.453,25.247 L1.41,25.2 L1.5,25.2 Z" id="Combined-Shape" fill="#000000" opacity="0.2"></path>
                    <path d="M23,14.3 L18,17.1 L18.1,17.2 L23,14.4 C23.7,14 24,13.5 24,13 L24,13 C24,13.5 23.6,13.9 23,14.3 Z" id="Path" fill="#000000" opacity="0.12"></path>
                    <path d="M3.5,0.6 L23,11.7 C23.6,12.1 24,12.5 24,13 L24,13 C24,12.5 23.7,12 23,11.6 L3.5,0.5 C2.1,-0.3 1,0.4 1,2 L1,2.1 C1,0.5 2.1,-0.2 3.5,0.6 Z" id="Path" fill="#FFFFFF" opacity="0.25"></path>
                </g>
            </g>
        </g>
        <path d="M46,12.3 C46,13.1 45.8,13.8 45.3,14.3 C44.7,14.9 44,15.2 43.1,15.2 C42.2,15.2 41.5,14.9 40.9,14.3 C40.3,13.7 40,13 40,12.1 C40,11.2 40.3,10.5 40.9,9.9 C41.5,9.3 42.2,9 43.1,9 C43.5,9 43.9,9.1 44.3,9.3 C44.7,9.5 45,9.7 45.2,10 L44.7,10.5 C44.3,10 43.8,9.8 43.1,9.8 C42.5,9.8 41.9,10 41.5,10.5 C41,10.9 40.8,11.5 40.8,12.2 C40.8,12.9 41,13.5 41.5,13.9 C42,14.3 42.5,14.6 43.1,14.6 C43.8,14.6 44.3,14.4 44.8,13.9 C45.1,13.6 45.3,13.2 45.3,12.7 L43.1,12.7 L43.1,12 L46,12 C46,12 46,12.2 46,12.3 Z M50.6,9.8 L47.9,9.8 L47.9,11.7 L50.4,11.7 L50.4,12.4 L47.9,12.4 L47.9,14.3 L50.6,14.3 L50.6,15.1 L47.1,15.1 L47.1,9.1 L50.6,9.1 L50.6,9.8 Z M53.9,15.1 L53.1,15.1 L53.1,9.8 L51.4,9.8 L51.4,9.1 L55.6,9.1 L55.6,9.8 L53.9,9.8 L53.9,15.1 Z M58.5,15.1 L58.5,9.1 L59.3,9.1 L59.3,15.1 L58.5,15.1 Z M62.7,15.1 L61.9,15.1 L61.9,9.8 L60.2,9.8 L60.2,9.1 L64.3,9.1 L64.3,9.8 L62.6,9.8 L62.6,15.1 L62.7,15.1 Z M72.3,14.3 C71.7,14.9 71,15.2 70.1,15.2 C69.2,15.2 68.5,14.9 67.9,14.3 C67.3,13.7 67,13 67,12.1 C67,11.2 67.3,10.5 67.9,9.9 C68.5,9.3 69.2,9 70.1,9 C71,9 71.7,9.3 72.3,9.9 C72.9,10.5 73.2,11.2 73.2,12.1 C73.2,13 72.9,13.7 72.3,14.3 Z M68.5,13.8 C68.9,14.2 69.5,14.5 70.1,14.5 C70.7,14.5 71.3,14.3 71.7,13.8 C72.1,13.4 72.4,12.8 72.4,12.1 C72.4,11.4 72.2,10.8 71.7,10.4 C71.3,10 70.7,9.7 70.1,9.7 C69.5,9.7 68.9,9.9 68.5,10.4 C68.1,10.8 67.8,11.4 67.8,12.1 C67.8,12.8 68,13.4 68.5,13.8 Z M74.2,15.1 L74.2,9.1 L75.1,9.1 L78,13.8 L78,13.8 L78,12.6 L78,9.1 L78.8,9.1 L78.8,15.1 L78,15.1 L74.9,10.2 L74.9,10.2 L74.9,11.4 L74.9,15.1 L74.2,15.1 Z M64.2553191,23.1715976 C62.0992908,23.1715976 60.392435,24.7692308 60.392435,26.9881657 C60.392435,29.1183432 62.0992908,30.8047337 64.2553191,30.8047337 C66.4113475,30.8047337 68.1182033,29.2071006 68.1182033,26.9881657 C68.1182033,24.6804734 66.4113475,23.1715976 64.2553191,23.1715976 Z M64.2553191,29.2071006 C63.0874704,29.2071006 62.0992908,28.2307692 62.0992908,26.8994083 C62.0992908,25.5680473 63.0874704,24.591716 64.2553191,24.591716 C65.4231678,24.591716 66.4113475,25.4792899 66.4113475,26.8994083 C66.4113475,28.2307692 65.4231678,29.2071006 64.2553191,29.2071006 Z M55.9007092,23.1715976 C53.7446809,23.1715976 52.0378251,24.7692308 52.0378251,26.9881657 C52.0378251,29.1183432 53.7446809,30.8047337 55.9007092,30.8047337 C58.0567376,30.8047337 59.7635934,29.2071006 59.7635934,26.9881657 C59.7635934,24.6804734 58.0567376,23.1715976 55.9007092,23.1715976 Z M55.9007092,29.2071006 C54.7328605,29.2071006 53.7446809,28.2307692 53.7446809,26.8994083 C53.7446809,25.5680473 54.7328605,24.591716 55.9007092,24.591716 C57.0685579,24.591716 58.0567376,25.4792899 58.0567376,26.8994083 C58.0567376,28.2307692 57.0685579,29.2071006 55.9007092,29.2071006 Z M45.929078,24.3254438 L45.929078,25.9230769 L49.7919622,25.9230769 C49.7021277,26.8106509 49.3427896,27.5207101 48.893617,27.964497 C48.3546099,28.4970414 47.4562648,29.1183432 45.929078,29.1183432 C43.5035461,29.1183432 41.7068558,27.2544379 41.7068558,24.8579882 C41.7068558,22.4615385 43.5933806,20.5976331 45.929078,20.5976331 C47.1867612,20.5976331 48.1749409,21.1301775 48.893617,21.7514793 L50.0614657,20.5976331 C49.0732861,19.7100592 47.8156028,19 46.0189125,19 C42.78487,19 40,21.6627219 40,24.8579882 C40,28.0532544 42.78487,30.7159763 46.0189125,30.7159763 C47.8156028,30.7159763 49.0732861,30.183432 50.1513002,29.0295858 C51.2293144,27.964497 51.5886525,26.4556213 51.5886525,25.3017751 C51.5886525,24.9467456 51.5886525,24.591716 51.498818,24.3254438 L45.929078,24.3254438 L45.929078,24.3254438 Z M86.713948,25.5680473 C86.3546099,24.6804734 85.4562648,23.1715976 83.4799054,23.1715976 C81.5035461,23.1715976 79.8865248,24.6804734 79.8865248,26.9881657 C79.8865248,29.1183432 81.5035461,30.8047337 83.6595745,30.8047337 C85.3664303,30.8047337 86.4444444,29.739645 86.8037825,29.1183432 L85.5460993,28.2307692 C85.0969267,28.852071 84.5579196,29.295858 83.6595745,29.295858 C82.7612293,29.295858 82.2222222,28.9408284 81.7730496,28.1420118 L86.893617,26.0118343 L86.713948,25.5680473 Z M81.5035461,26.8106509 C81.5035461,25.3905325 82.6713948,24.591716 83.4799054,24.591716 C84.108747,24.591716 84.7375887,24.9467456 84.9172577,25.3905325 L81.5035461,26.8106509 Z M77.2813239,30.4497041 L78.9881797,30.4497041 L78.9881797,19.3550296 L77.2813239,19.3550296 L77.2813239,30.4497041 Z M74.5862884,23.9704142 L74.5862884,23.9704142 C74.1371158,23.5266272 73.4184397,23.0828402 72.5200946,23.0828402 C70.6335697,23.0828402 68.8368794,24.7692308 68.8368794,26.8994083 C68.8368794,29.0295858 70.5437352,30.6272189 72.5200946,30.6272189 C73.4184397,30.6272189 74.1371158,30.183432 74.4964539,29.739645 L74.5862884,29.739645 L74.5862884,30.2721893 C74.5862884,31.6923077 73.7777778,32.4911243 72.5200946,32.4911243 C71.5319149,32.4911243 70.8132388,31.7810651 70.6335697,31.1597633 L69.1962175,31.7810651 C69.6453901,32.7573964 70.7234043,34 72.6099291,34 C74.5862884,34 76.2033097,32.8461538 76.2033097,30.0946746 L76.2033097,23.3491124 L74.5862884,23.3491124 L74.5862884,23.9704142 L74.5862884,23.9704142 Z M72.6099291,29.2071006 C71.4420804,29.2071006 70.4539007,28.2307692 70.4539007,26.8994083 C70.4539007,25.5680473 71.4420804,24.591716 72.6099291,24.591716 C73.7777778,24.591716 74.6761229,25.5680473 74.6761229,26.8994083 C74.6761229,28.2307692 73.7777778,29.2071006 72.6099291,29.2071006 Z M94.5295508,19.3550296 L90.4869976,19.3550296 L90.4869976,30.4497041 L92.1938534,30.4497041 L92.1938534,26.2781065 L94.5295508,26.2781065 C96.4160757,26.2781065 98.212766,24.9467456 98.212766,22.816568 C98.212766,20.6863905 96.4160757,19.3550296 94.5295508,19.3550296 Z M94.6193853,24.6804734 L92.1938534,24.6804734 L92.1938534,20.8639053 L94.6193853,20.8639053 C95.8770686,20.8639053 96.5957447,21.9289941 96.5957447,22.7278107 C96.5059102,23.704142 95.787234,24.6804734 94.6193853,24.6804734 Z M104.950355,23.0828402 C103.692671,23.0828402 102.434988,23.6153846 101.985816,24.7692308 L103.513002,25.3905325 C103.87234,24.7692308 104.411348,24.591716 105.040189,24.591716 C105.938534,24.591716 106.747045,25.1242604 106.836879,26.0118343 L106.836879,26.1005917 C106.567376,25.9230769 105.8487,25.6568047 105.130024,25.6568047 C103.513002,25.6568047 101.895981,26.5443787 101.895981,28.1420118 C101.895981,29.6508876 103.243499,30.6272189 104.680851,30.6272189 C105.8487,30.6272189 106.387707,30.0946746 106.836879,29.5621302 L106.926714,29.5621302 L106.926714,30.4497041 L108.543735,30.4497041 L108.543735,26.1893491 C108.364066,24.2366864 106.836879,23.0828402 104.950355,23.0828402 Z M104.770686,29.2071006 C104.231678,29.2071006 103.423168,28.9408284 103.423168,28.2307692 C103.423168,27.3431953 104.411348,27.0769231 105.219858,27.0769231 C105.938534,27.0769231 106.297872,27.2544379 106.747045,27.4319527 C106.567376,28.4970414 105.669031,29.2071006 104.770686,29.2071006 Z M114.20331,23.3491124 L112.316785,28.1420118 L112.22695,28.1420118 L110.250591,23.3491124 L108.453901,23.3491124 L111.41844,30.0946746 L109.711584,33.8224852 L111.41844,33.8224852 L116,23.3491124 L114.20331,23.3491124 Z M99.1111111,30.4497041 L100.817967,30.4497041 L100.817967,19.3550296 L99.1111111,19.3550296 L99.1111111,30.4497041 Z" id="Combined-Shape" fill="#FFFFFF" fill-rule="nonzero"></path>
    </g>
</svg>