<svg width="257" height="40" viewBox="0 0 257 40" fill="none" xmlns="http://www.w3.org/2000/svg">
<path d="M147.679 9.96215C144.669 9.96215 142.937 11.3683 140.079 13.9103C137.35 16.3548 133.474 19.9459 127 19.9459V11.6712C130.01 11.6712 131.742 10.265 134.6 7.72309C137.329 5.27852 141.205 1.6874 147.679 1.6874V9.96215ZM159.068 1.48188C160.14 1.48188 161.288 1.74149 162.1 2.1417V5.62466C161.364 5.09466 160.465 4.75935 159.393 4.75935C158.072 4.75935 157.25 5.57059 157.25 6.64144C157.25 8.98866 160.996 10.4056 160.996 14.4835C160.996 17.6961 158.549 19.8053 154.933 19.8053C153.633 19.8053 152.28 19.4267 151.468 18.8643V15.4029C152.334 16.0411 153.428 16.5279 154.727 16.5279C156.026 16.5279 156.968 15.7599 156.968 14.6674C156.968 12.3526 153.222 10.9789 153.222 6.74961C153.222 3.72094 155.615 1.48188 159.058 1.48188H159.068ZM207.582 5.06221C211.61 5.06221 214.663 8.14495 214.663 12.3959C214.663 16.6469 211.61 19.7513 207.582 19.7513C203.555 19.7513 200.491 16.6685 200.491 12.4175C200.491 8.16658 203.544 5.06221 207.582 5.06221ZM197.643 5.06221C198.564 5.06221 199.636 5.28935 200.372 5.70038V8.83722C199.733 8.42619 199.051 8.1774 198.282 8.1774C197.34 8.1774 196.756 8.70743 196.756 9.49704C196.756 11.0006 199.376 12.1688 199.376 15.2515C199.376 17.5663 197.568 19.708 194.634 19.708C193.562 19.708 192.598 19.4808 191.851 19.0698V15.933C192.414 16.3116 193.129 16.5928 193.941 16.5928C194.829 16.5928 195.468 16.106 195.468 15.3164C195.468 13.7913 192.848 12.5906 192.848 9.54032C192.848 7.30126 194.58 5.06221 197.643 5.06221ZM221.884 0C222.848 0 223.822 0.205517 224.634 0.605734V3.74256C224.125 3.33153 223.433 3.08274 222.675 3.08274C221.7 3.08274 221.094 3.61277 221.094 4.58628V5.3759H225.706V1.67658H229.604V5.36507H232.148V8.67498H229.604V14.8405C229.604 16.0087 230.167 16.5495 231.13 16.5495C231.845 16.5495 232.581 16.2899 233.144 15.8897V19.0265C232.429 19.4592 231.358 19.7188 230.264 19.7188C227.438 19.7188 225.706 18.0855 225.706 15.1325V8.68578H221.094V19.5133H217.196V8.68578H214.652V5.3759H217.196V4.53218C217.196 1.82802 219.08 0 221.884 0ZM167.08 10.9248L171.367 5.3759H175.698L170.501 11.9957L175.698 19.5025H171.216L167.091 13.4451V19.5025H163.193V1.67658H167.091V10.9248H167.08ZM180.029 19.5025H176.131V5.3759H180.029V19.5133V19.5025ZM185.41 19.5025H181.512V1.67658H185.41V19.5025ZM190.779 19.5025H186.882V1.67658H190.779V19.5025ZM207.582 8.40456C205.774 8.40456 204.345 9.9838 204.345 12.4067C204.345 14.8297 205.774 16.4305 207.582 16.4305C209.39 16.4305 210.819 14.8513 210.819 12.4284C210.819 10.0054 209.39 8.40456 207.582 8.40456ZM178.091 0C179.249 0 180.083 0.962684 180.083 2.15252C180.083 3.34236 179.217 4.30504 178.058 4.30504C176.9 4.30504 176.066 3.34236 176.066 2.15252C176.066 0.962684 176.9 0 178.091 0Z" fill="#151C36"/>
<path d="M184.363 25.4072V36H182.75V25.4072H184.363ZM183.891 29.8513V28.5424C183.901 27.8423 184.043 27.2488 184.317 26.7619C184.601 26.2647 184.971 25.8893 185.428 25.6356C185.884 25.3717 186.376 25.2399 186.904 25.2399C187.543 25.2399 188.111 25.4021 188.608 25.7269C189.115 26.0516 189.511 26.5082 189.794 27.0966C190.089 27.6852 190.236 28.3751 190.236 29.1666C190.236 29.9479 190.073 30.6377 189.749 31.2363C189.434 31.8349 189.019 32.3068 188.501 32.6518C187.984 32.9865 187.421 33.1541 186.812 33.1541C186.265 33.1541 185.773 33.0271 185.337 32.7734C184.911 32.5097 184.566 32.1293 184.302 31.6321C184.038 31.1349 183.901 30.5414 183.891 29.8513ZM184.363 29.197C184.363 29.7044 184.449 30.1558 184.621 30.5513C184.804 30.9371 185.053 31.2414 185.367 31.4647C185.692 31.6778 186.062 31.7843 186.478 31.7843C186.873 31.7843 187.233 31.6778 187.558 31.4647C187.882 31.2414 188.141 30.932 188.334 30.5363C188.527 30.1405 188.623 29.6839 188.623 29.1666C188.623 28.3853 188.42 27.7613 188.014 27.2946C187.619 26.8278 187.117 26.5945 186.508 26.5945C186.102 26.5945 185.737 26.7059 185.413 26.9292C185.088 27.1423 184.829 27.4466 184.637 27.8423C184.454 28.2279 184.363 28.6796 184.363 29.197ZM196.57 28.8927C196.57 28.1316 196.387 27.5483 196.022 27.1423C195.657 26.7366 195.2 26.5335 194.653 26.5335C194.267 26.5335 193.912 26.6451 193.588 26.8684C193.273 27.0917 193.02 27.4062 192.827 27.8119C192.644 28.2077 192.553 28.6592 192.553 29.1666C192.553 29.9681 192.776 30.6022 193.223 31.069C193.669 31.5358 194.278 31.769 195.048 31.769C195.464 31.769 195.88 31.7133 196.296 31.6017C196.722 31.4798 197.123 31.3125 197.498 31.0994V32.5148C197.173 32.7075 196.773 32.8648 196.296 32.9865C195.83 33.0981 195.368 33.1541 194.911 33.1541C194.14 33.1541 193.461 32.9916 192.873 32.6668C192.284 32.3321 191.823 31.8756 191.488 31.2971C191.153 30.7087 190.986 30.0391 190.986 29.2882C190.986 28.4765 191.153 27.7662 191.488 27.1576C191.833 26.5488 192.284 26.0769 192.842 25.7422C193.41 25.3973 194.019 25.2246 194.668 25.2246C195.317 25.2246 195.9 25.3819 196.418 25.6965C196.935 26.0008 197.341 26.432 197.635 26.99C197.939 27.5483 198.091 28.1975 198.091 28.9382C198.091 29.0396 198.086 29.1615 198.076 29.3035C198.076 29.4353 198.066 29.5521 198.046 29.6535H191.823L191.808 28.4665H197.026L196.57 28.8927ZM203.186 25.2703C203.318 25.2703 203.455 25.2805 203.597 25.3007C203.749 25.3211 203.886 25.3515 204.008 25.3922V26.9141C203.856 26.8531 203.688 26.8025 203.506 26.7619C203.323 26.7212 203.146 26.7011 202.973 26.7011C202.537 26.7011 202.152 26.8076 201.817 27.0207C201.482 27.2235 201.219 27.5128 201.026 27.8881C200.833 28.2534 200.737 28.6896 200.737 29.197V32.9865H199.124V25.4072H200.737V28.4055H200.356C200.366 27.8171 200.493 27.2895 200.737 26.8227C200.98 26.3459 201.31 25.9703 201.726 25.6965C202.152 25.4123 202.639 25.2703 203.186 25.2703ZM205.719 29.197C205.719 29.7044 205.83 30.1456 206.053 30.5209C206.277 30.8965 206.581 31.1906 206.966 31.4037C207.352 31.6068 207.778 31.7082 208.244 31.7082C208.599 31.7082 208.934 31.6523 209.249 31.5406C209.573 31.419 209.878 31.2568 210.161 31.0536V32.5756C209.888 32.7481 209.563 32.885 209.188 32.9865C208.812 33.0881 208.437 33.1387 208.062 33.1387C207.321 33.1387 206.652 32.9765 206.053 32.6518C205.455 32.3168 204.978 31.8554 204.623 31.2667C204.278 30.6681 204.106 29.9783 204.106 29.197C204.106 28.4461 204.278 27.7764 204.623 27.188C204.978 26.5994 205.455 26.1328 206.053 25.7877C206.652 25.4328 207.326 25.2552 208.077 25.2552C208.473 25.2552 208.853 25.3058 209.218 25.4072C209.583 25.5087 209.898 25.6558 210.161 25.8487V27.3707C209.908 27.1576 209.614 26.99 209.279 26.8684C208.944 26.7465 208.594 26.6857 208.229 26.6857C207.752 26.6857 207.321 26.7923 206.936 27.0053C206.561 27.2184 206.261 27.5128 206.038 27.8881C205.825 28.2634 205.719 28.6998 205.719 29.197ZM211.294 32.9865V25.4072H212.922V32.9865H211.294ZM211.081 23.1701C211.081 22.886 211.183 22.6424 211.386 22.4395C211.589 22.2366 211.827 22.1351 212.101 22.1351C212.385 22.1351 212.623 22.2366 212.816 22.4395C213.019 22.6424 213.12 22.886 213.12 23.1701C213.12 23.4541 213.019 23.6977 212.816 23.9006C212.623 24.1035 212.385 24.205 212.101 24.205C211.827 24.205 211.589 24.1035 211.386 23.9006C211.183 23.6977 211.081 23.4541 211.081 23.1701ZM216.13 25.4072V36H214.517V25.4072H216.13ZM215.658 29.8513V28.5424C215.668 27.8423 215.81 27.2488 216.084 26.7619C216.368 26.2647 216.738 25.8893 217.195 25.6356C217.651 25.3717 218.143 25.2399 218.671 25.2399C219.31 25.2399 219.878 25.4021 220.375 25.7269C220.882 26.0516 221.278 26.5082 221.562 27.0966C221.856 27.6852 222.003 28.3751 222.003 29.1666C222.003 29.9479 221.841 30.6377 221.516 31.2363C221.202 31.8349 220.786 32.3068 220.268 32.6518C219.751 32.9865 219.188 33.1541 218.58 33.1541C218.032 33.1541 217.54 33.0271 217.104 32.7734C216.678 32.5097 216.333 32.1293 216.069 31.6321C215.805 31.1349 215.668 30.5414 215.658 29.8513ZM216.13 29.197C216.13 29.7044 216.216 30.1558 216.389 30.5513C216.571 30.9371 216.82 31.2414 217.134 31.4647C217.459 31.6778 217.829 31.7843 218.245 31.7843C218.641 31.7843 219.001 31.6778 219.325 31.4647C219.65 31.2414 219.908 30.932 220.101 30.5363C220.294 30.1405 220.39 29.6839 220.39 29.1666C220.39 28.3853 220.187 27.7613 219.782 27.2946C219.386 26.8278 218.884 26.5945 218.275 26.5945C217.87 26.5945 217.504 26.7059 217.18 26.9292C216.855 27.1423 216.597 27.4466 216.404 27.8423C216.221 28.2279 216.13 28.6796 216.13 29.197ZM223.181 32.9865V25.4072H224.809V32.9865H223.181ZM222.968 23.1701C222.968 22.886 223.069 22.6424 223.272 22.4395C223.475 22.2366 223.714 22.1351 223.987 22.1351C224.272 22.1351 224.51 22.2366 224.702 22.4395C224.905 22.6424 225.007 22.886 225.007 23.1701C225.007 23.4541 224.905 23.6977 224.702 23.9006C224.51 24.1035 224.272 24.205 223.987 24.205C223.714 24.205 223.475 24.1035 223.272 23.9006C223.069 23.6977 222.968 23.4541 222.968 23.1701ZM225.963 29.197C225.963 28.4461 226.13 27.7764 226.465 27.188C226.809 26.5894 227.271 26.1124 227.849 25.7573C228.438 25.4021 229.087 25.2246 229.797 25.2246C230.517 25.2246 231.166 25.4021 231.744 25.7573C232.322 26.1124 232.779 26.5894 233.114 27.188C233.459 27.7764 233.631 28.4461 233.631 29.197C233.631 29.9376 233.459 30.6073 233.114 31.2059C232.779 31.8045 232.322 32.2813 231.744 32.6364C231.166 32.9916 230.517 33.1691 229.797 33.1691C229.087 33.1691 228.438 32.9916 227.849 32.6364C227.271 32.2813 226.809 31.8045 226.465 31.2059C226.13 30.6073 225.963 29.9376 225.963 29.197ZM227.53 29.197C227.53 29.6942 227.631 30.1354 227.834 30.5209C228.037 30.9065 228.311 31.211 228.656 31.4341C229.001 31.6574 229.381 31.769 229.797 31.769C230.223 31.769 230.603 31.6574 230.938 31.4341C231.283 31.211 231.557 30.9065 231.76 30.5209C231.962 30.1354 232.064 29.6942 232.064 29.197C232.064 28.6896 231.962 28.2432 231.76 27.8577C231.557 27.4721 231.283 27.1727 230.938 26.9596C230.603 26.7366 230.223 26.6249 229.797 26.6249C229.381 26.6249 229.001 26.7366 228.656 26.9596C228.311 27.1727 228.037 27.4721 227.834 27.8577C227.631 28.2432 227.53 28.6896 227.53 29.197Z" fill="#151C36"/>
<path d="M235.722 32.5945V30.8918H236.024L236.379 31.8164C236.448 32.0018 236.551 32.3496 236.551 32.3496H236.556C236.556 32.3496 236.661 32.0042 236.73 31.8164L237.078 30.8918H237.389V32.5945H237.165V31.5647C237.165 31.4136 237.179 31.1275 237.179 31.1275H237.174C237.174 31.1275 237.105 31.3839 237.055 31.5167L236.64 32.5945H236.457L236.042 31.5167C235.994 31.3839 235.923 31.1275 235.923 31.1275H235.919C235.919 31.1275 235.932 31.4136 235.932 31.5647V32.5945H235.722Z" fill="#151C36"/>
<path d="M234.118 31.0979V30.8918H235.474V31.0979H234.913V32.5945H234.677V31.0979H234.118Z" fill="#151C36"/>
<path d="M102.711 20.8L102.991 20.04L98.9308 9.66003H100.891L103.931 17.64L106.711 9.66003H108.591L104.411 21.34C103.631 23.46 102.471 24.34 100.811 24.34C100.191 24.34 99.4908 24.14 99.0508 23.82V22.16C99.4708 22.44 100.091 22.7 100.651 22.7C101.551 22.7 102.231 22.14 102.711 20.8Z" fill="#151C36"/>
<path d="M89.8043 5.43994V11.4599C90.5243 10.1599 91.8043 9.43994 93.2043 9.43994C95.7443 9.43994 97.6643 11.5399 97.6643 14.7799C97.6643 17.9999 95.5643 20.2199 93.1043 20.2199C91.7043 20.2199 90.4843 19.5199 89.8043 18.2799V19.9999H87.9443V5.43994H89.8043ZM89.8043 14.8199C89.8043 17.0999 91.0443 18.6399 92.7843 18.6399C94.4843 18.6399 95.8043 17.0799 95.8043 14.7999C95.8043 12.4799 94.5643 11.0199 92.8443 11.0199C91.1243 11.0199 89.8043 12.5799 89.8043 14.8199Z" fill="#151C36"/>
<path d="M77.8024 19.9999V18.2199C77.0824 19.4999 75.7824 20.2199 74.3824 20.2199C71.8624 20.2199 69.9224 18.1199 69.9224 14.8599C69.9224 11.6799 72.0424 9.43994 74.4824 9.43994C75.9024 9.43994 77.1224 10.1399 77.8024 11.3999V5.43994H79.6424V19.9999H77.8024ZM77.8024 14.8199C77.8024 12.5799 76.5624 11.0199 74.8024 11.0199C73.1224 11.0199 71.7824 12.5999 71.7824 14.8599C71.7824 17.1799 73.0424 18.6399 74.7624 18.6399C76.4824 18.6399 77.8024 17.0999 77.8024 14.8199Z" fill="#151C36"/>
<path d="M67.8682 17.2399C67.4082 19.0399 65.7882 20.2199 63.6882 20.2199C60.8882 20.2199 58.8482 18.0999 58.8482 14.8999C58.8482 11.5999 61.1282 9.43994 63.6482 9.43994C66.1482 9.43994 68.0682 11.4399 68.0682 14.4399C68.0682 14.7199 68.0682 15.0999 68.0282 15.3799H60.6882C60.8682 17.3999 62.0282 18.6799 63.6882 18.6799C64.8882 18.6799 65.7482 18.1199 66.0682 17.2399H67.8682ZM63.6482 10.9799C62.1882 10.9799 61.0282 12.1999 60.7482 13.9599H66.2882C66.1282 12.0399 65.0482 10.9799 63.6482 10.9799Z" fill="#151C36"/>
<path d="M56.1702 9.47998C56.5502 9.47998 56.9702 9.53998 57.2902 9.67998V11.44C56.8902 11.24 56.3902 11.14 55.9302 11.14C54.2102 11.14 52.8902 12.58 52.8902 14.8V20H51.0302V9.65998H52.8902V11.6C53.5302 10.32 54.7302 9.47998 56.1702 9.47998Z" fill="#151C36"/>
<path d="M48.376 17.2399C47.916 19.0399 46.296 20.2199 44.196 20.2199C41.396 20.2199 39.356 18.0999 39.356 14.8999C39.356 11.5999 41.636 9.43994 44.156 9.43994C46.656 9.43994 48.576 11.4399 48.576 14.4399C48.576 14.7199 48.576 15.0999 48.536 15.3799H41.196C41.376 17.3999 42.536 18.6799 44.196 18.6799C45.396 18.6799 46.256 18.1199 46.576 17.2399H48.376ZM44.156 10.9799C42.696 10.9799 41.536 12.1999 41.256 13.9599H46.796C46.636 12.0399 45.556 10.9799 44.156 10.9799Z" fill="#151C36"/>
<path d="M26.8676 20L24.1676 9.66003H25.9876L27.9876 17.82L30.1276 9.66003H32.1076L34.2676 17.84L36.2676 9.66003H38.0076L35.3076 20H33.1876L31.0876 12.08L29.0076 20H26.8676Z" fill="#151C36"/>
<path d="M12.7935 14.8199C12.7935 11.7999 14.9935 9.43994 17.8135 9.43994C20.6335 9.43994 22.8335 11.7999 22.8335 14.8199C22.8335 17.8799 20.6335 20.2399 17.8135 20.2399C14.9935 20.2399 12.7935 17.8799 12.7935 14.8199ZM14.6335 14.8199C14.6335 17.0599 16.0335 18.6199 17.8135 18.6199C19.5935 18.6199 20.9935 17.0599 20.9935 14.8199C20.9935 12.5999 19.5935 11.0399 17.8135 11.0399C16.0335 11.0399 14.6335 12.5999 14.6335 14.8199Z" fill="#151C36"/>
<path d="M1.81525 20V6H6.15525C9.09525 6 10.9752 7.74 10.9752 10.28C10.9752 12.8 9.09525 14.54 6.15525 14.54H3.73525V20H1.81525ZM6.13525 7.68H3.73525V12.88H6.13525C7.85525 12.88 9.07525 11.84 9.07525 10.28C9.07525 8.74 7.85525 7.68 6.13525 7.68Z" fill="#151C36"/>
</svg>
